# Blender v2.78 (sub 0) OBJ File: ''
# www.blender.org
o Cylinder
v 4.951999 0.000000 1.000000
v 4.951999 3.181092 1.000000
v 4.364214 0.000000 0.809017
v 4.360666 2.980058 0.809017
v 4.000943 0.000000 0.309017
v 3.995203 2.855812 0.309017
v 4.000943 0.000000 -0.309017
v 3.995203 2.855812 -0.309017
v 4.364214 0.000000 -0.809017
v 4.360666 2.980058 -0.809017
v 4.951999 0.000000 -1.000000
v 4.951999 3.181092 -1.000000
v 5.539784 0.000000 -0.809017
v 5.543332 3.382127 -0.809017
v 5.903056 0.000000 -0.309017
v 5.908796 3.506373 -0.309017
v 5.903056 0.000000 0.309017
v 5.908796 3.506373 0.309017
v 5.539784 0.000000 0.809017
v 5.543332 3.382126 0.809017
v 3.332263 5.292208 1.000000
v 3.106163 4.709999 0.809017
v 2.966426 4.350173 0.309017
v 2.966425 4.350173 -0.309017
v 3.106163 4.709998 -0.809017
v 3.332263 5.292208 -1.000000
v 3.558363 5.874418 -0.809017
v 3.698101 6.234243 -0.309017
v 3.698101 6.234243 0.309017
v 3.558364 5.874417 0.809017
v -4.951999 0.000000 1.000000
v -4.951999 3.181092 1.000000
v -4.364214 0.000000 0.809017
v -4.360666 2.980058 0.809017
v -4.000943 0.000000 0.309017
v -3.995203 2.855812 0.309017
v -4.000943 0.000000 -0.309017
v -3.995203 2.855812 -0.309017
v -4.364214 0.000000 -0.809017
v -4.360666 2.980058 -0.809017
v -4.951999 0.000000 -1.000000
v -4.951999 3.181092 -1.000000
v -5.539784 0.000000 -0.809017
v -5.543332 3.382127 -0.809017
v -5.903056 0.000000 -0.309017
v -5.908796 3.506373 -0.309017
v -5.903056 0.000000 0.309017
v -5.908796 3.506373 0.309017
v -5.539784 0.000000 0.809017
v -5.543332 3.382126 0.809017
v -3.332263 5.292208 1.000000
v -3.106163 4.709999 0.809017
v -2.966426 4.350173 0.309017
v -2.966425 4.350173 -0.309017
v -3.106163 4.709998 -0.809017
v -3.332263 5.292208 -1.000000
v -3.558363 5.874418 -0.809017
v -3.698101 6.234243 -0.309017
v -3.698101 6.234243 0.309017
v -3.558364 5.874417 0.809017
v 0.000000 5.292208 1.000000
v 0.000000 4.709999 0.809017
v 0.000000 4.350173 0.309017
v 0.000000 4.350173 -0.309017
v 0.000000 4.709998 -0.809017
v 0.000000 5.292208 -1.000000
v 0.000000 5.874418 -0.809017
v 0.000000 6.234243 -0.309017
v 0.000000 6.234243 0.309017
v 0.000000 5.874417 0.809017
v 4.387202 0.000000 -0.700299
v -4.387202 0.000000 -0.700299
v 4.387202 0.000000 0.700299
v -4.387202 0.000000 0.700299
vt 0.7289 0.6426
vt 0.5547 0.6080
vt 0.7289 0.6082
vt 0.0946 0.7076
vt 0.0654 0.8848
vt 0.0654 0.7076
vt 0.0292 0.7076
vt 0.0292 0.8848
vt 0.0000 0.7076
vt 0.1903 0.0726
vt 0.3645 0.0346
vt 0.3645 0.0724
vt 0.1785 0.0346
vt 0.3645 0.0002
vt 0.9181 0.7544
vt 0.8889 0.5446
vt 0.9181 0.5445
vt 0.8889 0.7622
vt 0.8528 0.5446
vt 0.0891 0.1496
vt 0.0551 0.1340
vt 0.8235 0.7544
vt 0.8235 0.5445
vt 0.7289 0.6804
vt 0.5430 0.6425
vt 0.3216 0.7194
vt 0.3903 0.8198
vt 0.3560 0.8317
vt 0.0000 0.8925
vt 0.0292 0.9777
vt 0.0000 1.0000
vt 0.4536 0.5310
vt 0.0946 0.8925
vt 0.0654 0.9777
vt 0.5312 0.6806
vt 0.4196 0.5431
vt 0.5239 0.7076
vt 0.3855 0.5587
vt 0.8528 0.9312
vt 0.8528 0.7622
vt 0.9181 0.9089
vt 0.8889 0.9312
vt 0.1668 0.0000
vt 0.0211 0.1218
vt 0.9346 0.3769
vt 0.9054 0.1928
vt 0.9346 0.1928
vt 0.9054 0.4503
vt 0.8762 0.2295
vt 0.9054 0.2295
vt 0.0211 0.3403
vt 0.9708 0.1928
vt 0.9708 0.3769
vt 0.3855 0.3403
vt 0.4196 0.3385
vt 0.8108 0.4503
vt 0.8401 0.2295
vt 0.8401 0.4590
vt 1.0000 0.1928
vt 1.0000 0.3855
vt 0.4536 0.3403
vt 0.8762 0.4590
vt 0.0551 0.3385
vt 0.7289 0.0346
vt 0.5547 0.0726
vt 0.5430 0.0346
vt 0.1892 1.0000
vt 0.1599 0.8227
vt 0.1892 0.8151
vt 0.1238 1.0000
vt 0.1599 1.0000
vt 0.0946 1.0000
vt 0.1238 0.8227
vt 0.3645 0.6426
vt 0.1903 0.6080
vt 0.3645 0.6082
vt 0.3645 0.6804
vt 0.1785 0.6425
vt 0.7582 0.5446
vt 0.7289 0.7544
vt 0.7289 0.5445
vt 0.7943 0.5446
vt 0.7582 0.7622
vt 0.0891 0.5310
vt 0.8235 0.7544
vt 0.7943 0.7622
vt 0.7289 0.0002
vt 0.5312 0.0000
vt 0.2104 0.7194
vt 0.3004 0.7888
vt 0.1892 0.7888
vt 0.0946 0.8151
vt 0.1238 0.7299
vt 0.4536 0.1496
vt 0.1599 0.7299
vt 0.4196 0.1340
vt 0.8235 0.9089
vt 0.7943 0.9312
vt 0.1595 0.7076
vt 0.0211 0.5587
vt 0.1668 0.6806
vt 0.0551 0.5431
vt 0.9346 0.0087
vt 0.9054 0.0000
vt 0.9054 0.0087
vt 0.8762 0.0000
vt 0.9708 0.0087
vt 0.3855 0.1218
vt 0.8108 0.0087
vt 0.8401 0.0000
vt 1.0000 0.0000
vt 0.7289 0.0000
vt 0.8108 0.5445
vt 0.7289 0.5445
vt 0.3216 0.8198
vt 0.3004 0.7888
vt 0.3004 0.7504
vt 0.3560 0.7076
vt 0.3903 0.7194
vt 0.4116 0.7504
vt 0.4116 0.7888
vt 0.0946 1.0000
vt 0.3645 0.5718
vt 0.9054 0.3855
vt 0.8108 0.2295
vt 0.0891 0.3403
vt 0.7289 0.0724
vt 0.8235 0.5445
vt 0.2448 0.8317
vt 0.2104 0.8198
vt 0.1892 0.7504
vt 0.2448 0.7076
vt 0.2791 0.7194
vt 0.3004 0.7504
vt 0.2791 0.8198
vt 0.0946 0.7076
vt 0.1892 0.7076
vt 0.7582 0.9312
vt 0.0000 0.5718
vt 0.8108 0.0000
vn -0.3090 -0.0004 0.9511
vn -0.8090 -0.0016 0.5878
vn -1.0000 -0.0020 0.0000
vn -0.8090 -0.0016 -0.5878
vn -0.3090 -0.0004 -0.9511
vn 0.3090 0.0000 -0.9511
vn 0.8090 -0.0008 -0.5878
vn 1.0000 -0.0016 0.0000
vn -0.2673 -0.2051 -0.9415
vn 0.8090 -0.0008 0.5878
vn 0.3090 0.0000 0.9511
vn 0.0000 -1.0000 0.0000
vn -0.6792 -0.4925 -0.5442
vn -0.2468 -0.1789 0.9524
vn -0.8237 -0.5671 0.0000
vn -0.6612 -0.4552 0.5964
vn 0.2438 0.1870 0.9516
vn 0.6328 0.5040 0.5878
vn 0.7769 0.6296 0.0000
vn 0.6454 0.5230 -0.5567
vn 0.2610 0.2079 -0.9427
vn 0.0000 -0.8117 0.5841
vn 0.0000 0.8117 0.5841
vn -0.0000 0.3117 -0.9502
vn 0.0000 0.3117 0.9502
vn -0.0000 0.8117 -0.5841
vn -0.0000 -0.8117 -0.5841
vn 0.0000 -0.3117 0.9502
vn 0.0000 1.0000 0.0000
vn -0.0000 -0.3117 -0.9502
vn 0.3073 0.0000 0.9516
vn 0.8072 -0.0010 0.5903
vn 1.0000 -0.0020 0.0000
vn 0.8090 -0.0016 -0.5878
vn 0.3090 -0.0004 -0.9511
vn -0.3090 0.0000 -0.9511
vn -0.8090 -0.0008 -0.5878
vn -1.0000 -0.0016 0.0000
vn 0.2468 -0.1789 -0.9524
vn -0.8075 -0.0013 0.5899
vn -0.3074 -0.0003 0.9516
vn 0.6612 -0.4552 -0.5964
vn 0.2468 -0.1789 0.9524
vn 0.8237 -0.5671 0.0000
vn 0.6612 -0.4552 0.5964
vn -0.2438 0.1870 0.9516
vn -0.6328 0.5040 0.5878
vn -0.7769 0.6296 0.0000
vn -0.6328 0.5040 -0.5878
vn -0.2438 0.1870 -0.9516
vn -0.3073 0.0000 0.9516
vn -0.8072 -0.0010 0.5903
vn -0.8072 -0.0010 -0.5903
vn -0.3073 0.0000 -0.9516
vn 0.3074 -0.0003 -0.9516
vn 0.8075 -0.0013 -0.5899
vn -0.2468 -0.1789 -0.9524
vn 0.8075 -0.0013 0.5899
vn 0.3074 -0.0003 0.9516
vn -0.6612 -0.4552 -0.5964
vn -0.2673 -0.2051 0.9415
vn -0.6792 -0.4925 0.5442
vn 0.2610 0.2079 0.9427
vn 0.6454 0.5230 0.5567
vn 0.6328 0.5040 -0.5878
vn 0.2438 0.1870 -0.9516
vn 0.3090 -0.0004 0.9511
vn 0.8090 -0.0016 0.5878
vn 0.8072 -0.0010 -0.5903
vn 0.3073 0.0000 -0.9516
vn -0.3074 -0.0003 -0.9516
vn -0.8075 -0.0013 -0.5899
vn 0.2673 -0.2051 -0.9415
vn -0.8090 -0.0008 0.5878
vn -0.3090 0.0000 0.9511
vn 0.6792 -0.4925 -0.5442
vn 0.2673 -0.2051 0.9415
vn 0.6792 -0.4925 0.5442
vn -0.2610 0.2079 0.9427
vn -0.6454 0.5230 0.5567
vn -0.6454 0.5230 -0.5567
vn -0.2610 0.2079 -0.9427
s off
f 1/1/1 4/2/1 3/3/1
f 3/4/2 6/5/2 5/6/2
f 6/5/3 7/7/3 5/6/3
f 8/8/4 9/9/4 7/7/4
f 10/10/5 11/11/5 9/12/5
f 12/13/6 13/14/6 11/11/6
f 14/15/7 15/16/7 13/17/7
f 16/18/8 17/19/8 15/16/8
f 12/13/9 25/20/9 26/21/9
f 17/19/10 20/22/10 19/23/10
f 19/24/11 2/25/11 1/1/11
f 7/26/12 17/27/12 19/28/12
f 10/29/13 24/30/13 25/31/13
f 2/25/14 22/32/14 4/2/14
f 6/5/15 24/30/15 8/8/15
f 4/33/16 23/34/16 6/5/16
f 20/35/17 21/36/17 2/25/17
f 18/37/18 30/38/18 20/35/18
f 16/18/19 29/39/19 18/40/19
f 16/18/20 27/41/20 28/42/20
f 14/43/21 26/21/21 27/44/21
f 23/45/22 62/46/22 63/47/22
f 30/48/23 69/49/23 70/50/23
f 26/21/24 67/51/24 27/44/24
f 23/45/12 64/52/12 24/53/12
f 21/36/25 70/54/25 61/55/25
f 27/56/26 68/57/26 28/58/26
f 24/53/27 65/59/27 25/60/27
f 22/32/28 61/55/28 62/61/28
f 28/58/29 69/49/29 29/62/29
f 25/20/30 66/63/30 26/21/30
f 31/64/31 34/65/31 32/66/31
f 33/67/32 36/68/32 34/69/32
f 37/70/33 36/68/33 35/71/33
f 39/72/34 38/73/34 37/70/34
f 41/74/35 40/75/35 39/76/35
f 43/77/36 42/78/36 41/74/36
f 45/79/37 44/80/37 43/81/37
f 47/82/38 46/83/38 45/79/38
f 42/78/39 55/84/39 40/75/39
f 47/82/40 50/85/40 48/86/40
f 49/87/41 32/66/41 50/88/41
f 45/89/12 37/90/12 49/91/12
f 40/92/42 54/93/42 38/73/42
f 52/94/43 32/66/43 34/65/43
f 54/93/44 36/68/44 38/73/44
f 53/95/45 34/69/45 36/68/45
f 51/96/46 50/88/46 32/66/46
f 60/97/47 48/86/47 50/85/47
f 59/98/48 46/83/48 48/86/48
f 46/99/49 57/100/49 44/101/49
f 44/101/50 56/102/50 42/78/50
f 53/103/22 62/46/22 52/104/22
f 60/105/23 69/49/23 59/106/23
f 67/51/24 56/102/24 57/100/24
f 64/52/12 53/103/12 54/107/12
f 51/96/25 70/54/25 60/108/25
f 68/57/26 57/109/26 58/110/26
f 65/59/27 54/107/27 55/111/27
f 52/94/28 61/55/28 51/96/28
f 69/49/29 58/110/29 59/106/29
f 66/63/30 55/84/30 56/102/30
f 72/112/29 73/113/29 71/114/29
f 1/1/51 2/25/51 4/2/51
f 3/4/52 4/33/52 6/5/52
f 6/5/3 8/8/3 7/7/3
f 8/8/53 10/29/53 9/9/53
f 10/10/54 12/13/54 11/11/54
f 12/13/55 14/43/55 13/14/55
f 14/15/56 16/18/56 15/16/56
f 16/18/8 18/40/8 17/19/8
f 12/13/57 10/10/57 25/20/57
f 17/19/58 18/40/58 20/22/58
f 19/24/59 20/35/59 2/25/59
f 19/28/12 1/115/12 3/116/12
f 3/116/12 5/117/12 7/26/12
f 7/26/12 9/118/12 11/119/12
f 11/119/12 13/120/12 15/121/12
f 15/121/12 17/27/12 7/26/12
f 19/28/12 3/116/12 7/26/12
f 7/26/12 11/119/12 15/121/12
f 10/29/60 8/8/60 24/30/60
f 2/25/61 21/36/61 22/32/61
f 6/5/15 23/34/15 24/30/15
f 4/33/62 22/122/62 23/34/62
f 20/35/63 30/38/63 21/36/63
f 18/37/64 29/123/64 30/38/64
f 16/18/19 28/42/19 29/39/19
f 16/18/65 14/15/65 27/41/65
f 14/43/66 12/13/66 26/21/66
f 23/45/22 22/124/22 62/46/22
f 30/48/23 29/62/23 69/49/23
f 26/21/24 66/63/24 67/51/24
f 23/45/12 63/47/12 64/52/12
f 21/36/25 30/38/25 70/54/25
f 27/56/26 67/125/26 68/57/26
f 24/53/27 64/52/27 65/59/27
f 22/32/28 21/36/28 61/55/28
f 28/58/29 68/57/29 69/49/29
f 25/20/30 65/126/30 66/63/30
f 31/64/67 33/127/67 34/65/67
f 33/67/68 35/71/68 36/68/68
f 37/70/33 38/73/33 36/68/33
f 39/72/69 40/92/69 38/73/69
f 41/74/70 42/78/70 40/75/70
f 43/77/71 44/101/71 42/78/71
f 45/79/72 46/83/72 44/80/72
f 47/82/38 48/86/38 46/83/38
f 42/78/73 56/102/73 55/84/73
f 47/82/74 49/128/74 50/85/74
f 49/87/75 31/64/75 32/66/75
f 33/129/12 31/130/12 49/91/12
f 49/91/12 47/131/12 45/89/12
f 45/89/12 43/132/12 41/133/12
f 41/133/12 39/134/12 37/90/12
f 37/90/12 35/135/12 33/129/12
f 33/129/12 49/91/12 37/90/12
f 45/89/12 41/133/12 37/90/12
f 40/92/76 55/136/76 54/93/76
f 52/94/77 51/96/77 32/66/77
f 54/93/44 53/95/44 36/68/44
f 53/95/78 52/137/78 34/69/78
f 51/96/79 60/108/79 50/88/79
f 60/97/80 59/98/80 48/86/80
f 59/98/48 58/138/48 46/83/48
f 46/99/81 58/139/81 57/100/81
f 44/101/82 57/100/82 56/102/82
f 53/103/22 63/47/22 62/46/22
f 60/105/23 70/50/23 69/49/23
f 67/51/24 66/63/24 56/102/24
f 64/52/12 63/47/12 53/103/12
f 51/96/25 61/55/25 70/54/25
f 68/57/26 67/125/26 57/109/26
f 65/59/27 64/52/27 54/107/27
f 52/94/28 62/61/28 61/55/28
f 69/49/29 68/57/29 58/110/29
f 66/63/30 65/126/30 55/84/30
f 72/112/29 74/140/29 73/113/29
