# Blender v2.78 (sub 0) OBJ File: 'Start.blend'
# www.blender.org
o Cylinder.001
v -0.273478 0.685460 0.033940
v -0.346828 0.685460 0.042011
v -0.346828 0.685460 0.048921
v -0.420178 0.685460 0.035458
v 0.019924 0.685460 0.045111
v -0.053426 0.685460 0.038856
v -0.053426 0.685460 0.045766
v -0.126777 0.685460 0.028943
v -0.126777 0.685460 0.022033
v -0.420178 0.685460 0.028548
v -0.493529 0.685460 -0.000130
v -0.200127 0.685460 0.023665
v -0.200127 0.685460 0.016755
v -0.273478 0.685460 0.027030
v -0.493529 0.685460 -0.007040
v -0.566879 0.685460 -0.004280
v 0.019924 0.461283 0.038201
v -0.053426 0.461283 0.038856
v 0.093275 0.685460 0.008318
v 0.093275 0.461283 0.008318
v 0.826780 0.461283 0.021333
v 0.826780 0.685460 0.014423
v 0.826780 0.685460 0.021333
v 0.019924 0.461283 0.045111
v -0.053426 0.461283 0.045766
v 0.093275 0.685460 0.015229
v 0.093275 0.461283 0.015229
v -0.786931 0.461283 0.014423
v -0.786931 0.685460 0.021333
v -0.786931 0.685460 0.014423
v 0.753430 0.461283 0.015649
v 0.826780 0.461283 0.014423
v 0.680079 0.461283 0.002231
v 0.753429 0.685460 0.015649
v 0.606728 0.685460 0.001053
v 0.680079 0.685460 0.002231
v 0.533378 0.461283 0.011315
v 0.606729 0.461283 0.001053
v 0.460028 0.461283 0.025606
v 0.533378 0.685460 0.011315
v 0.386677 0.461283 0.019492
v 0.460027 0.685460 0.025606
v 0.313327 0.461283 -0.008727
v 0.386677 0.685460 0.019492
v 0.239976 0.461283 -0.021566
v 0.313326 0.685460 -0.008727
v 0.166625 0.461283 -0.008937
v 0.239976 0.685460 -0.021566
v 0.166625 0.685460 -0.008936
v -0.713581 0.461283 0.010849
v -0.713580 0.685460 0.010849
v -0.640230 0.461283 0.009628
v -0.640230 0.685460 0.009628
v -0.566880 0.461283 -0.011191
v -0.566879 0.685460 -0.011190
v -0.493529 0.461283 -0.007040
v -0.420179 0.461283 0.028548
v -0.346828 0.461283 0.042011
v -0.273478 0.461283 0.027030
v -0.200127 0.461283 0.016755
v -0.126777 0.461283 0.022033
v 0.753430 0.461283 0.022559
v 0.753429 0.685460 0.022559
v 0.680079 0.461283 0.009141
v 0.680079 0.685460 0.009141
v 0.606729 0.461283 0.007963
v 0.606728 0.685460 0.007963
v 0.533378 0.461283 0.018225
v 0.533378 0.685460 0.018225
v 0.460028 0.461283 0.032516
v 0.460027 0.685460 0.032516
v 0.386677 0.461283 0.026402
v 0.386677 0.685460 0.026402
v 0.313327 0.461283 -0.001817
v 0.313326 0.685460 -0.001817
v 0.239976 0.461283 -0.014656
v 0.166625 0.685460 -0.002027
v 0.166625 0.461283 -0.002027
v -0.713581 0.461283 0.017759
v -0.786931 0.461283 0.021333
v -0.640230 0.461283 0.016538
v -0.713580 0.685460 0.017759
v -0.566880 0.461283 -0.004280
v -0.640230 0.685460 0.016538
v -0.493529 0.461283 -0.000130
v -0.420179 0.461283 0.035458
v -0.346828 0.461283 0.048921
v -0.273478 0.461283 0.033940
v -0.200127 0.461283 0.023665
v -0.126777 0.461283 0.028943
v 0.239976 0.685460 -0.014656
v 0.019924 0.685460 0.038201
v 0.799110 -0.000000 0.161371
v 0.703685 0.480895 0.130552
v 0.704258 -0.000000 0.130552
v 0.644710 0.460846 0.049866
v 0.645637 -0.000000 0.049866
v 0.645637 0.000000 -0.049866
v 0.644710 0.460846 -0.049866
v 0.704258 0.000000 -0.130552
v 0.703685 0.480895 -0.130552
v 0.799110 0.000000 -0.161371
v 0.799110 0.513336 -0.161371
v 0.893961 0.000000 -0.130552
v 0.894534 0.545778 -0.130552
v 0.952583 0.000000 -0.049866
v 0.953509 0.565827 -0.049866
v 0.952583 -0.000000 0.049866
v 0.501245 0.760058 -0.130552
v 0.537731 0.854009 -0.161371
v 0.894534 0.545777 0.130552
v 0.893961 -0.000000 0.130552
v 0.799110 0.513336 0.161371
v 0.478695 0.701992 -0.049866
v 0.501245 0.760058 0.130552
v 0.478695 0.701992 0.049867
v 0.537731 0.854009 0.161371
v 0.953509 0.565827 0.049867
v 0.574217 0.947961 0.130552
v 0.596767 1.006027 0.049867
v 0.574217 0.947961 -0.130552
v 0.596767 1.006027 -0.049866
v 0.000000 0.760058 0.130552
v 0.000000 0.701992 0.049867
v 0.000000 1.006027 0.049867
v 0.000000 0.947961 0.130552
v 0.000000 0.947961 -0.130552
v 0.000000 0.701992 -0.049866
v 0.000000 0.854009 0.161371
v 0.000000 1.006027 -0.049866
v 0.000000 0.760058 -0.130552
v 0.000000 0.854009 -0.161371
v -0.799110 -0.000000 0.161371
v -0.703685 0.480895 0.130552
v -0.799110 0.513336 0.161371
v -0.704258 -0.000000 0.130552
v -0.644710 0.460846 0.049866
v -0.645637 0.000000 -0.049866
v -0.645637 -0.000000 0.049866
v -0.704258 0.000000 -0.130552
v -0.644710 0.460846 -0.049866
v -0.799110 0.000000 -0.161371
v -0.703685 0.480895 -0.130552
v -0.893961 0.000000 -0.130552
v -0.799110 0.513336 -0.161371
v -0.952583 0.000000 -0.049866
v -0.894534 0.545778 -0.130552
v -0.952583 -0.000000 0.049866
v -0.953509 0.565827 -0.049866
v -0.501245 0.760058 -0.130552
v -0.894534 0.545777 0.130552
v -0.953509 0.565827 0.049867
v -0.893961 -0.000000 0.130552
v -0.478695 0.701992 -0.049866
v -0.501245 0.760058 0.130552
v -0.478695 0.701992 0.049867
v -0.537731 0.854009 0.161371
v -0.574217 0.947961 0.130552
v -0.596767 1.006027 0.049867
v -0.574217 0.947961 -0.130552
v -0.537731 0.854009 -0.161371
v -0.596767 1.006027 -0.049866
v -0.707968 0.000000 -0.113008
v 0.707968 -0.000000 0.113008
v 0.707968 0.000000 -0.113008
v -0.707968 -0.000000 0.113008
vt 0.9780 0.8289
vt 0.9756 0.8526
vt 0.9733 0.8527
vt 0.9781 0.8763
vt 0.9730 0.7341
vt 0.9754 0.7578
vt 0.9731 0.7578
vt 0.9791 0.7815
vt 0.9814 0.7814
vt 0.9805 0.8763
vt 0.9905 0.8999
vt 0.9812 0.8052
vt 0.9835 0.8051
vt 0.9804 0.8289
vt 0.9928 0.8998
vt 0.9922 0.9236
vt 0.6679 0.2897
vt 0.7436 0.2660
vt 0.7436 0.2897
vt 0.6679 0.2423
vt 0.7436 0.2423
vt 0.6335 0.6663
vt 0.6312 0.5938
vt 0.6335 0.5938
vt 0.7545 0.2660
vt 0.8303 0.2897
vt 0.7545 0.2897
vt 0.8303 0.2423
vt 0.7545 0.2423
vt 0.6444 0.5938
vt 0.6468 0.6663
vt 0.6444 0.6663
vt 0.7436 0.0289
vt 0.6679 0.0052
vt 0.7436 0.0052
vt 0.7436 0.0526
vt 0.6679 0.0289
vt 0.6679 0.0763
vt 0.6679 0.0526
vt 0.7436 0.1000
vt 0.7436 0.0763
vt 0.7436 0.1237
vt 0.6679 0.1000
vt 0.7436 0.1475
vt 0.6679 0.1237
vt 0.7436 0.1712
vt 0.6679 0.1475
vt 0.7436 0.1949
vt 0.6679 0.1712
vt 0.7436 0.2186
vt 0.6679 0.1949
vt 0.6679 0.2186
vt 0.6679 0.5267
vt 0.7436 0.5030
vt 0.7436 0.5267
vt 0.6679 0.5030
vt 0.7436 0.4793
vt 0.6679 0.4793
vt 0.7436 0.4556
vt 0.6679 0.4556
vt 0.7436 0.4319
vt 0.6679 0.4319
vt 0.7436 0.4082
vt 0.6679 0.4082
vt 0.7436 0.3845
vt 0.6679 0.3608
vt 0.7436 0.3608
vt 0.7436 0.3371
vt 0.6679 0.3371
vt 0.7436 0.3134
vt 0.6679 0.3134
vt 0.8303 0.0052
vt 0.7545 0.0289
vt 0.7545 0.0052
vt 0.8303 0.0289
vt 0.7545 0.0526
vt 0.8303 0.0526
vt 0.7545 0.0763
vt 0.8303 0.0763
vt 0.7545 0.1000
vt 0.8303 0.1000
vt 0.7545 0.1237
vt 0.8303 0.1237
vt 0.7545 0.1475
vt 0.8303 0.1475
vt 0.7545 0.1711
vt 0.8303 0.1711
vt 0.7545 0.1949
vt 0.8303 0.2186
vt 0.7545 0.2186
vt 0.7545 0.5030
vt 0.8303 0.5267
vt 0.7545 0.5267
vt 0.7545 0.4793
vt 0.8303 0.5030
vt 0.7545 0.4556
vt 0.8303 0.4793
vt 0.7545 0.4319
vt 0.8303 0.4556
vt 0.7545 0.4082
vt 0.8303 0.4319
vt 0.7545 0.3845
vt 0.8303 0.4082
vt 0.7545 0.3608
vt 0.8303 0.3845
vt 0.7545 0.3371
vt 0.8303 0.3608
vt 0.7545 0.3134
vt 0.8303 0.3371
vt 0.8303 0.3134
vt 0.9878 0.9473
vt 0.9945 0.9235
vt 0.9877 0.9710
vt 0.9855 0.9473
vt 0.9854 0.9711
vt 0.9868 0.9947
vt 0.9845 0.9948
vt 0.9489 0.9948
vt 0.9503 0.9711
vt 0.9512 0.9948
vt 0.9501 0.9474
vt 0.9479 0.9710
vt 0.9478 0.9473
vt 0.9433 0.9236
vt 0.9410 0.9236
vt 0.9426 0.8999
vt 0.9549 0.8763
vt 0.9450 0.8999
vt 0.9597 0.8526
vt 0.9573 0.8763
vt 0.9573 0.8289
vt 0.9549 0.8289
vt 0.9541 0.8052
vt 0.9517 0.8051
vt 0.9538 0.7814
vt 0.9597 0.7578
vt 0.9561 0.7815
vt 0.9621 0.7341
vt 0.9597 0.7341
vt 0.9522 0.7103
vt 0.9499 0.7103
vt 0.9467 0.6865
vt 0.9443 0.6865
vt 0.9427 0.6628
vt 0.9449 0.6391
vt 0.9403 0.6628
vt 0.9547 0.6155
vt 0.9472 0.6391
vt 0.9570 0.5918
vt 0.9570 0.6155
vt 0.9548 0.5681
vt 0.9594 0.5918
vt 0.9525 0.5681
vt 0.9516 0.5444
vt 0.9499 0.5206
vt 0.9492 0.5443
vt 0.9547 0.4970
vt 0.9522 0.5207
vt 0.9569 0.4733
vt 0.9545 0.4733
vt 0.9775 0.4733
vt 0.9797 0.4970
vt 0.9774 0.4970
vt 0.9823 0.5206
vt 0.9846 0.5206
vt 0.9830 0.5443
vt 0.9853 0.5443
vt 0.9822 0.5681
vt 0.9777 0.5918
vt 0.9798 0.5681
vt 0.9777 0.6155
vt 0.9800 0.6155
vt 0.9876 0.6391
vt 0.9899 0.6391
vt 0.9922 0.6628
vt 0.9945 0.6627
vt 0.9906 0.6865
vt 0.9851 0.7103
vt 0.9883 0.6865
vt 0.9828 0.7103
vt 0.9753 0.7341
vt 0.6679 0.2660
vt 0.6312 0.6663
vt 0.8303 0.2660
vt 0.6468 0.5938
vt 0.6679 0.3845
vt 0.8303 0.1949
vt 0.9621 0.8526
vt 0.9620 0.7578
vt 0.9570 0.4970
vt 0.9798 0.4733
vt 0.9753 0.5919
vt 0.6570 0.5526
vt 0.4945 0.5217
vt 0.6570 0.5219
vt 0.2919 0.5938
vt 0.2647 0.7428
vt 0.2647 0.5939
vt 0.2310 0.5939
vt 0.2310 0.7428
vt 0.2037 0.5938
vt 0.1633 0.0669
vt 0.3258 0.0360
vt 0.3258 0.0667
vt 0.1523 0.0360
vt 0.3258 0.0054
vt 0.7561 0.7136
vt 0.7288 0.5372
vt 0.7561 0.5372
vt 0.7288 0.7201
vt 0.6951 0.5372
vt 0.0689 0.1323
vt 0.0372 0.1205
vt 0.6679 0.7136
vt 0.6679 0.5372
vt 0.6570 0.5832
vt 0.4835 0.5526
vt 0.5166 0.6299
vt 0.6203 0.6621
vt 0.6005 0.6882
vt 0.2037 0.7493
vt 0.2310 0.8208
vt 0.2037 0.8396
vt 0.4002 0.4563
vt 0.2919 0.7493
vt 0.2647 0.8208
vt 0.4726 0.5834
vt 0.3684 0.4681
vt 0.6951 0.7201
vt 0.6679 0.8434
vt 0.6951 0.8622
vt 0.7561 0.8434
vt 0.7288 0.8622
vt 0.1413 0.0052
vt 0.0055 0.1087
vt 0.1318 0.9106
vt 0.1046 0.7558
vt 0.1318 0.7558
vt 0.8412 0.4805
vt 0.8684 0.6661
vt 0.8412 0.6661
vt 0.0055 0.2943
vt 0.1655 0.7558
vt 0.1655 0.9106
vt 0.3367 0.2943
vt 0.3684 0.2943
vt 0.9294 0.4805
vt 0.9021 0.6661
vt 0.9021 0.4733
vt 0.1928 0.7558
vt 0.1928 0.9178
vt 0.4002 0.2943
vt 0.8684 0.4733
vt 0.0372 0.2943
vt 0.6570 0.0360
vt 0.4945 0.0669
vt 0.4835 0.0360
vt 0.3911 0.8396
vt 0.3638 0.6906
vt 0.3911 0.6842
vt 0.3301 0.8395
vt 0.3638 0.8395
vt 0.3028 0.8396
vt 0.3301 0.6906
vt 0.3258 0.5526
vt 0.1633 0.5217
vt 0.3258 0.5219
vt 0.3258 0.5832
vt 0.1523 0.5526
vt 0.0664 0.9188
vt 0.0937 0.7425
vt 0.0937 0.9189
vt 0.0327 0.9188
vt 0.0664 0.7360
vt 0.0689 0.4563
vt 0.0055 0.7425
vt 0.0327 0.7360
vt 0.6570 0.0054
vt 0.4726 0.0052
vt 0.4218 0.6038
vt 0.5057 0.6621
vt 0.4020 0.6621
vt 0.3028 0.6842
vt 0.3301 0.6126
vt 0.4002 0.1323
vt 0.3638 0.6126
vt 0.3684 0.1205
vt 0.0055 0.6126
vt 0.0327 0.5938
vt 0.0937 0.6126
vt 0.1413 0.5834
vt 0.0372 0.4681
vt 0.1318 0.6011
vt 0.1046 0.5938
vt 0.8412 0.8517
vt 0.8684 0.8590
vt 0.0055 0.4799
vt 0.1655 0.6011
vt 0.3367 0.1087
vt 0.9294 0.8517
vt 0.9021 0.8590
vt 0.1928 0.5938
vt 0.9176 0.4628
vt 0.8412 0.0052
vt 0.9176 0.0052
vt 0.5684 0.6982
vt 0.5364 0.6882
vt 0.5166 0.6621
vt 0.5364 0.6038
vt 0.5684 0.5938
vt 0.6005 0.6038
vt 0.6203 0.6299
vt 0.2919 0.8396
vt 0.3367 0.4799
vt 0.1046 0.9178
vt 0.9294 0.6661
vt 0.0689 0.2943
vt 0.6570 0.0667
vt 0.0055 0.9189
vt 0.4538 0.6982
vt 0.4218 0.6882
vt 0.4020 0.6299
vt 0.4538 0.5938
vt 0.4859 0.6038
vt 0.5057 0.6299
vt 0.4859 0.6882
vt 0.3028 0.5938
vt 0.3911 0.5938
vt 0.0664 0.5938
vt 0.8412 0.4628
vn 0.0000 1.0000 0.0000
vn -0.0089 0.0000 -1.0000
vn -0.3773 0.0000 -0.9261
vn 1.0000 0.0000 0.0000
vn 0.0089 -0.0000 1.0000
vn 0.3773 -0.0000 0.9261
vn -1.0000 0.0000 0.0000
vn -0.0167 0.0000 -0.9999
vn 0.1800 0.0000 -0.9837
vn 0.0161 0.0000 -0.9999
vn -0.1385 0.0000 -0.9904
vn -0.1912 0.0000 -0.9815
vn 0.0831 0.0000 -0.9965
vn 0.3591 0.0000 -0.9333
vn 0.1724 0.0000 -0.9850
vn -0.1697 0.0000 -0.9855
vn -0.2290 0.0000 -0.9734
vn -0.0487 0.0000 -0.9988
vn -0.0166 0.0000 -0.9999
vn -0.2730 0.0000 -0.9620
vn 0.0565 0.0000 -0.9984
vn 0.4365 -0.0000 -0.8997
vn 0.1805 0.0000 -0.9836
vn -0.2001 0.0000 -0.9798
vn -0.1387 0.0000 -0.9903
vn 0.0718 0.0000 -0.9974
vn 0.2236 0.0000 -0.9747
vn 0.0167 -0.0000 0.9999
vn -0.1800 -0.0000 0.9837
vn -0.0161 -0.0000 0.9999
vn 0.1385 -0.0000 0.9904
vn 0.1912 0.0000 0.9815
vn -0.0831 -0.0000 0.9965
vn -0.3591 -0.0000 0.9333
vn -0.1724 -0.0000 0.9850
vn 0.1697 -0.0000 0.9855
vn 0.2290 -0.0000 0.9734
vn 0.0487 -0.0000 0.9988
vn 0.0166 -0.0000 0.9999
vn 0.2730 -0.0000 0.9620
vn -0.0565 -0.0000 0.9984
vn -0.4365 0.0000 0.8997
vn -0.1805 -0.0000 0.9836
vn 0.2001 -0.0000 0.9798
vn 0.1387 -0.0000 0.9903
vn -0.0718 -0.0000 0.9974
vn -0.2236 -0.0000 0.9747
vn 0.0000 -1.0000 0.0000
vn -0.3078 -0.0001 0.9515
vn -0.3087 -0.0003 0.9512
vn -0.3090 -0.0004 0.9511
vn -0.8076 -0.0011 0.5897
vn -0.8085 -0.0015 0.5885
vn -0.8090 -0.0016 0.5878
vn -1.0000 -0.0020 0.0000
vn -0.8085 -0.0015 -0.5885
vn -0.8076 -0.0011 -0.5897
vn -0.8090 -0.0016 -0.5878
vn -0.3085 -0.0003 -0.9512
vn -0.3077 -0.0001 -0.9515
vn -0.3090 -0.0004 -0.9511
vn 0.3086 0.0000 -0.9512
vn 0.3078 -0.0002 -0.9515
vn 0.3090 0.0000 -0.9511
vn 0.8086 -0.0009 -0.5883
vn 0.8079 -0.0011 -0.5894
vn 0.8090 -0.0008 -0.5878
vn 1.0000 -0.0016 0.0000
vn -0.2673 -0.2051 -0.9415
vn 0.8079 -0.0011 0.5894
vn 0.8086 -0.0009 0.5883
vn 0.8090 -0.0008 0.5878
vn 0.3077 -0.0002 0.9515
vn 0.3086 0.0000 0.9512
vn 0.3090 -0.0000 0.9511
vn -0.6792 -0.4925 -0.5442
vn -0.2468 -0.1789 0.9524
vn -0.8237 -0.5671 0.0000
vn -0.6612 -0.4552 0.5964
vn 0.2438 0.1870 0.9516
vn 0.6328 0.5040 0.5878
vn 0.7769 0.6296 0.0000
vn 0.6454 0.5230 -0.5567
vn 0.2610 0.2079 -0.9427
vn 0.0000 -0.8117 0.5841
vn 0.0000 0.8117 0.5841
vn 0.0000 0.3117 -0.9502
vn 0.0000 0.3117 0.9502
vn 0.0000 0.8117 -0.5841
vn 0.0000 -0.8117 -0.5841
vn 0.0000 -0.3117 0.9502
vn 0.0000 -0.3117 -0.9502
vn 0.3078 -0.0001 0.9515
vn 0.3087 -0.0003 0.9512
vn 0.3073 -0.0000 0.9516
vn 0.8076 -0.0011 0.5897
vn 0.8085 -0.0015 0.5885
vn 0.8072 -0.0010 0.5903
vn 1.0000 -0.0020 0.0000
vn 0.8076 -0.0011 -0.5897
vn 0.8085 -0.0015 -0.5885
vn 0.8090 -0.0016 -0.5878
vn 0.3077 -0.0001 -0.9515
vn 0.3086 -0.0003 -0.9512
vn 0.3090 -0.0004 -0.9511
vn -0.3078 -0.0002 -0.9515
vn -0.3085 -0.0001 -0.9512
vn -0.3090 0.0000 -0.9511
vn -0.8079 -0.0011 -0.5894
vn -0.8086 -0.0009 -0.5884
vn -0.8090 -0.0008 -0.5878
vn -1.0000 -0.0016 0.0000
vn 0.2468 -0.1789 -0.9524
vn -0.8079 -0.0011 0.5894
vn -0.8086 -0.0009 0.5883
vn -0.8075 -0.0013 0.5899
vn -0.3077 -0.0002 0.9515
vn -0.3086 0.0000 0.9512
vn -0.3074 -0.0003 0.9516
vn 0.6612 -0.4552 -0.5964
vn 0.2468 -0.1789 0.9524
vn 0.8237 -0.5671 0.0000
vn 0.6612 -0.4552 0.5964
vn -0.2438 0.1870 0.9516
vn -0.6328 0.5040 0.5878
vn -0.7769 0.6296 0.0000
vn -0.6328 0.5040 -0.5878
vn -0.2438 0.1870 -0.9516
vn -0.3073 -0.0000 0.9516
vn -0.8072 -0.0010 0.5903
vn -0.8072 -0.0010 -0.5903
vn -0.3073 0.0000 -0.9516
vn 0.3074 -0.0003 -0.9516
vn 0.8075 -0.0013 -0.5899
vn -0.2468 -0.1789 -0.9524
vn 0.8075 -0.0013 0.5899
vn 0.3074 -0.0003 0.9516
vn -0.6612 -0.4552 -0.5964
vn -0.2673 -0.2051 0.9415
vn -0.6792 -0.4925 0.5442
vn 0.2610 0.2079 0.9427
vn 0.6454 0.5230 0.5567
vn 0.6328 0.5040 -0.5878
vn 0.2438 0.1870 -0.9516
vn 0.3090 -0.0004 0.9511
vn 0.8090 -0.0016 0.5878
vn 0.8072 -0.0010 -0.5903
vn 0.3073 0.0000 -0.9516
vn -0.3074 -0.0003 -0.9516
vn -0.8075 -0.0013 -0.5899
vn 0.2673 -0.2051 -0.9415
vn -0.8090 -0.0008 0.5878
vn -0.3090 -0.0000 0.9511
vn 0.6792 -0.4925 -0.5442
vn 0.2673 -0.2051 0.9415
vn 0.6792 -0.4925 0.5442
vn -0.2610 0.2079 0.9427
vn -0.6454 0.5230 0.5567
vn -0.6454 0.5230 -0.5567
vn -0.2610 0.2079 -0.9427
s 1
f 1/1/1 2/2/1 3/3/1
f 2/2/1 4/4/1 3/3/1
f 5/5/1 6/6/1 7/7/1
f 8/8/1 6/6/1 9/9/1
f 10/10/1 11/11/1 4/4/1
f 12/12/1 9/9/1 13/13/1
f 12/12/1 14/14/1 1/1/1
f 15/15/1 16/16/1 11/11/1
f 6/17/2 17/18/2 18/19/2
f 17/18/3 19/20/3 20/21/3
f 21/22/4 22/23/4 23/24/4
f 24/25/5 7/26/5 25/27/5
f 26/28/6 24/25/6 27/29/6
f 28/30/7 29/31/7 30/32/7
f 31/33/8 22/34/8 32/35/8
f 33/36/9 34/37/9 31/33/9
f 33/36/10 35/38/10 36/39/10
f 37/40/11 35/38/11 38/41/11
f 39/42/12 40/43/12 37/40/12
f 41/44/13 42/45/13 39/42/13
f 43/46/14 44/47/14 41/44/14
f 45/48/15 46/49/15 43/46/15
f 47/50/16 48/51/16 45/48/16
f 47/50/17 19/20/17 49/52/17
f 30/53/18 50/54/18 28/55/18
f 51/56/19 52/57/19 50/54/19
f 53/58/20 54/59/20 52/57/20
f 55/60/21 56/61/21 54/59/21
f 15/62/22 57/63/22 56/61/22
f 10/64/23 58/65/23 57/63/23
f 58/65/24 14/66/24 59/67/24
f 14/66/25 60/68/25 59/67/25
f 13/69/26 61/70/26 60/68/26
f 9/71/27 18/19/27 61/70/27
f 23/72/28 62/73/28 21/74/28
f 63/75/29 64/76/29 62/73/29
f 65/77/30 66/78/30 64/76/30
f 67/79/31 68/80/31 66/78/31
f 69/81/32 70/82/32 68/80/32
f 71/83/33 72/84/33 70/82/33
f 73/85/34 74/86/34 72/84/34
f 75/87/35 76/88/35 74/86/35
f 76/88/36 77/89/36 78/90/36
f 78/90/37 26/28/37 27/29/37
f 79/91/38 29/92/38 80/93/38
f 81/94/39 82/95/28 79/91/39
f 83/96/40 84/97/40 81/94/40
f 85/98/41 16/99/41 83/96/41
f 86/100/42 11/101/42 85/98/42
f 87/102/43 4/103/43 86/100/43
f 88/104/44 3/105/44 87/102/44
f 89/106/45 1/107/45 88/104/45
f 90/108/46 12/109/46 89/106/46
f 90/108/47 7/26/47 8/110/47
f 53/111/1 16/16/1 55/112/1
f 51/113/1 84/114/1 53/111/1
f 82/115/1 30/116/1 29/117/1
f 28/118/48 79/119/48 80/120/48
f 81/121/48 50/122/48 52/123/48
f 83/124/48 52/123/48 54/125/48
f 56/126/48 83/124/48 54/125/48
f 57/127/48 85/128/48 56/126/48
f 58/129/48 86/130/48 57/127/48
f 88/131/48 58/129/48 59/132/48
f 89/133/48 59/132/48 60/134/48
f 61/135/48 89/133/48 60/134/48
f 18/136/48 90/137/48 61/135/48
f 24/138/48 18/136/48 17/139/48
f 17/139/48 27/140/48 24/138/48
f 20/141/48 78/142/48 27/140/48
f 47/143/48 76/144/48 78/142/48
f 43/145/48 76/144/48 45/146/48
f 41/147/48 74/148/48 43/145/48
f 39/149/48 72/150/48 41/147/48
f 39/149/48 68/151/48 70/152/48
f 37/153/48 66/154/48 68/151/48
f 33/155/48 66/154/48 38/156/48
f 31/157/48 64/158/48 33/155/48
f 21/159/48 31/157/48 32/160/48
f 23/161/1 34/162/1 63/163/1
f 65/164/1 34/162/1 36/165/1
f 67/166/1 36/165/1 35/167/1
f 40/168/1 67/166/1 35/167/1
f 42/169/1 69/170/1 40/168/1
f 73/171/1 42/169/1 44/172/1
f 75/173/1 44/172/1 46/174/1
f 91/175/1 46/174/1 48/176/1
f 49/177/1 91/175/1 48/176/1
f 19/178/1 77/179/1 49/177/1
f 26/180/1 92/181/1 5/5/1
f 1/1/1 14/14/1 2/2/1
f 2/2/1 10/10/1 4/4/1
f 5/5/1 92/181/1 6/6/1
f 8/8/1 7/7/1 6/6/1
f 10/10/1 15/15/1 11/11/1
f 12/12/1 8/8/1 9/9/1
f 12/12/1 13/13/1 14/14/1
f 15/15/1 55/112/1 16/16/1
f 6/17/2 92/182/2 17/18/2
f 17/18/3 92/182/3 19/20/3
f 21/22/4 32/183/4 22/23/4
f 24/25/5 5/184/5 7/26/5
f 26/28/6 5/184/6 24/25/6
f 28/30/7 80/185/7 29/31/7
f 31/33/8 34/37/8 22/34/8
f 33/36/9 36/39/9 34/37/9
f 33/36/10 38/41/10 35/38/10
f 37/40/11 40/43/11 35/38/11
f 39/42/12 42/45/12 40/43/12
f 41/44/13 44/47/13 42/45/13
f 43/46/14 46/49/14 44/47/14
f 45/48/15 48/51/15 46/49/15
f 47/50/16 49/52/16 48/51/16
f 47/50/17 20/21/17 19/20/17
f 30/53/18 51/56/18 50/54/18
f 51/56/19 53/58/19 52/57/19
f 53/58/20 55/60/20 54/59/20
f 55/60/21 15/62/21 56/61/21
f 15/62/22 10/64/22 57/63/22
f 10/64/23 2/186/23 58/65/23
f 58/65/24 2/186/24 14/66/24
f 14/66/25 13/69/25 60/68/25
f 13/69/26 9/71/26 61/70/26
f 9/71/27 6/17/27 18/19/27
f 23/72/28 63/75/28 62/73/28
f 63/75/29 65/77/29 64/76/29
f 65/77/30 67/79/30 66/78/30
f 67/79/31 69/81/31 68/80/31
f 69/81/32 71/83/32 70/82/32
f 71/83/33 73/85/33 72/84/33
f 73/85/34 75/87/34 74/86/34
f 75/87/35 91/187/35 76/88/35
f 76/88/36 91/187/36 77/89/36
f 78/90/37 77/89/37 26/28/37
f 79/91/38 82/95/38 29/92/38
f 81/94/39 84/97/28 82/95/28
f 83/96/40 16/99/40 84/97/40
f 85/98/41 11/101/41 16/99/41
f 86/100/42 4/103/42 11/101/42
f 87/102/43 3/105/43 4/103/43
f 88/104/44 1/107/44 3/105/44
f 89/106/45 12/109/45 1/107/45
f 90/108/46 8/110/46 12/109/46
f 90/108/47 25/27/47 7/26/47
f 53/111/1 84/114/1 16/16/1
f 51/113/1 82/115/1 84/114/1
f 82/115/1 51/113/1 30/116/1
f 28/118/48 50/122/48 79/119/48
f 81/121/48 79/119/48 50/122/48
f 83/124/48 81/121/48 52/123/48
f 56/126/48 85/128/48 83/124/48
f 57/127/48 86/130/48 85/128/48
f 58/129/48 87/188/48 86/130/48
f 88/131/48 87/188/48 58/129/48
f 89/133/48 88/131/48 59/132/48
f 61/135/48 90/137/48 89/133/48
f 18/136/48 25/189/48 90/137/48
f 24/138/48 25/189/48 18/136/48
f 17/139/48 20/141/48 27/140/48
f 20/141/48 47/143/48 78/142/48
f 47/143/48 45/146/48 76/144/48
f 43/145/48 74/148/48 76/144/48
f 41/147/48 72/150/48 74/148/48
f 39/149/48 70/152/48 72/150/48
f 39/149/48 37/153/48 68/151/48
f 37/153/48 38/156/48 66/154/48
f 33/155/48 64/158/48 66/154/48
f 31/157/48 62/190/48 64/158/48
f 21/159/48 62/190/48 31/157/48
f 23/161/1 22/191/1 34/162/1
f 65/164/1 63/163/1 34/162/1
f 67/166/1 65/164/1 36/165/1
f 40/168/1 69/170/1 67/166/1
f 42/169/1 71/192/1 69/170/1
f 73/171/1 71/192/1 42/169/1
f 75/173/1 73/171/1 44/172/1
f 91/175/1 75/173/1 46/174/1
f 49/177/1 77/179/1 91/175/1
f 19/178/1 26/180/1 77/179/1
f 26/180/1 19/178/1 92/181/1
f 93/193/49 94/194/50 95/195/51
f 95/196/52 96/197/53 97/198/54
f 96/197/55 98/199/55 97/198/55
f 99/200/56 100/201/57 98/199/58
f 101/202/59 102/203/60 100/204/61
f 103/205/62 104/206/63 102/203/64
f 105/207/65 106/208/66 104/209/67
f 107/210/68 108/211/68 106/208/68
f 103/205/69 109/212/69 110/213/69
f 108/211/70 111/214/71 112/215/72
f 112/216/73 113/217/74 93/193/75
f 98/218/48 108/219/48 112/220/48
f 101/221/76 114/222/76 109/223/76
f 113/217/77 115/224/77 94/194/77
f 96/197/78 114/222/78 99/200/78
f 94/225/79 116/226/79 96/197/79
f 111/227/80 117/228/80 113/217/80
f 118/229/81 119/230/81 111/214/81
f 107/210/82 120/231/82 118/229/82
f 107/210/83 121/232/83 122/233/83
f 105/234/84 110/213/84 121/235/84
f 116/236/85 123/237/85 124/238/85
f 119/239/86 125/240/86 126/241/86
f 110/213/87 127/242/87 121/235/87
f 116/236/48 128/243/48 114/244/48
f 117/228/88 126/245/88 129/246/88
f 121/247/89 130/248/89 122/249/89
f 114/244/90 131/250/90 109/251/90
f 115/224/91 129/246/91 123/252/91
f 122/249/1 125/240/1 120/253/1
f 109/212/92 132/254/92 110/213/92
f 133/255/93 134/256/94 135/257/95
f 136/258/96 137/259/97 134/260/98
f 138/261/99 137/259/99 139/262/99
f 140/263/100 141/264/101 138/261/102
f 142/265/103 143/266/104 140/267/105
f 144/268/106 145/269/107 142/265/108
f 146/270/109 147/271/110 144/272/111
f 148/273/112 149/274/112 146/270/112
f 145/269/113 150/275/113 143/266/113
f 148/273/114 151/276/115 152/277/116
f 153/278/117 135/257/118 151/279/119
f 146/280/48 138/281/48 153/282/48
f 143/283/120 154/284/120 141/264/120
f 155/285/121 135/257/121 134/256/121
f 154/284/122 137/259/122 141/264/122
f 156/286/123 134/260/123 137/259/123
f 157/287/124 151/279/124 135/257/124
f 158/288/125 152/277/125 151/276/125
f 159/289/126 149/274/126 152/277/126
f 149/274/127 160/290/127 147/271/127
f 147/291/128 161/292/128 145/269/128
f 156/293/85 123/237/85 155/294/85
f 158/295/86 125/240/86 159/296/86
f 127/242/87 161/292/87 160/297/87
f 128/243/48 156/293/48 154/298/48
f 157/287/88 126/245/88 158/299/88
f 130/248/89 160/300/89 162/301/89
f 131/250/90 154/298/90 150/302/90
f 155/285/91 129/246/91 157/287/91
f 125/240/1 162/301/1 159/296/1
f 132/254/92 150/275/92 161/292/92
f 163/303/1 164/304/1 165/305/1
f 93/193/49 113/217/129 94/194/50
f 95/196/52 94/225/130 96/197/53
f 96/197/55 99/200/55 98/199/55
f 99/200/56 101/221/131 100/201/57
f 101/202/59 103/205/132 102/203/60
f 103/205/62 105/234/133 104/206/63
f 105/207/65 107/210/134 106/208/66
f 107/210/68 118/229/68 108/211/68
f 103/205/135 101/202/135 109/212/135
f 108/211/70 118/229/136 111/214/71
f 112/216/73 111/227/137 113/217/74
f 112/220/48 93/306/48 95/307/48
f 95/307/48 97/308/48 98/218/48
f 98/218/48 100/309/48 102/310/48
f 102/310/48 104/311/48 106/312/48
f 106/312/48 108/219/48 98/218/48
f 112/220/48 95/307/48 98/218/48
f 98/218/48 102/310/48 106/312/48
f 101/221/138 99/200/138 114/222/138
f 113/217/139 117/228/139 115/224/139
f 96/197/78 116/226/78 114/222/78
f 94/225/140 115/313/140 116/226/140
f 111/227/141 119/314/141 117/228/141
f 118/229/142 120/231/142 119/230/142
f 107/210/82 122/233/82 120/231/82
f 107/210/143 105/207/143 121/232/143
f 105/234/144 103/205/144 110/213/144
f 116/236/85 115/315/85 123/237/85
f 119/239/86 120/253/86 125/240/86
f 110/213/87 132/254/87 127/242/87
f 116/236/48 124/238/48 128/243/48
f 117/228/88 119/314/88 126/245/88
f 121/247/89 127/316/89 130/248/89
f 114/244/90 128/243/90 131/250/90
f 115/224/91 117/228/91 129/246/91
f 122/249/1 130/248/1 125/240/1
f 109/212/92 131/317/92 132/254/92
f 133/255/93 136/318/145 134/256/94
f 136/258/96 139/262/146 137/259/97
f 138/261/99 141/264/99 137/259/99
f 140/263/100 143/283/147 141/264/101
f 142/265/103 145/269/148 143/266/104
f 144/268/106 147/291/149 145/269/107
f 146/270/109 149/274/150 147/271/110
f 148/273/112 152/277/112 149/274/112
f 145/269/151 161/292/151 150/275/151
f 148/273/114 153/319/152 151/276/115
f 153/278/117 133/255/153 135/257/118
f 136/320/48 133/321/48 153/282/48
f 153/282/48 148/322/48 146/280/48
f 146/280/48 144/323/48 142/324/48
f 142/324/48 140/325/48 138/281/48
f 138/281/48 139/326/48 136/320/48
f 136/320/48 153/282/48 138/281/48
f 146/280/48 142/324/48 138/281/48
f 143/283/154 150/327/154 154/284/154
f 155/285/155 157/287/155 135/257/155
f 154/284/122 156/286/122 137/259/122
f 156/286/156 155/328/156 134/260/156
f 157/287/157 158/299/157 151/279/157
f 158/288/158 159/289/158 152/277/158
f 159/289/126 162/329/126 149/274/126
f 149/274/159 162/329/159 160/290/159
f 147/291/160 160/297/160 161/292/160
f 156/293/85 124/238/85 123/237/85
f 158/295/86 126/241/86 125/240/86
f 127/242/87 132/254/87 161/292/87
f 128/243/48 124/238/48 156/293/48
f 157/287/88 129/246/88 126/245/88
f 130/248/89 127/316/89 160/300/89
f 131/250/90 128/243/90 154/298/90
f 155/285/91 123/252/91 129/246/91
f 125/240/1 130/248/1 162/301/1
f 132/254/92 131/317/92 150/275/92
f 163/303/1 166/330/1 164/304/1
